<svg xmlns="http://www.w3.org/2000/svg" width="1600" height="900" viewBox="0 0 1920 510"><path fill="#999999" d="M558.56 298.42h73.7v28.3H524.27V142.35h34.29v156.07Zm151.09-104.55q14.54 0 26.46 4.71 11.92 4.72 20.4 13.39 8.48 8.67 13.07 21.16 4.59 12.5 4.59 27.93 0 15.55-4.59 28.05-4.59 12.49-13.07 21.29-8.48 8.8-20.4 13.51-11.92 4.72-26.46 4.72-14.66 0-26.65-4.72-11.98-4.71-20.46-13.51t-13.13-21.29q-4.66-12.5-4.66-28.05 0-15.43 4.66-27.93 4.65-12.49 13.13-21.16T683 198.58q11.99-4.71 26.65-4.71Zm0 110.54q16.32 0 24.16-10.97 7.84-10.96 7.84-32.13 0-21.16-7.84-32.26-7.84-11.09-24.16-11.09-16.57 0-24.54 11.16-7.97 11.15-7.97 32.19t7.97 32.07q7.97 11.03 24.54 11.03Zm157.72-11.48v-22.05q-13.64.63-22.95 2.35-9.31 1.72-14.92 4.4-5.61 2.68-8.03 6.25-2.42 3.57-2.42 7.78 0 8.28 4.9 11.85 4.91 3.57 12.82 3.57 9.69 0 16.76-3.5 7.08-3.51 13.84-10.65Zm-66.56-68.72-5.61-10.07q22.57-20.66 54.32-20.66 11.47 0 20.53 3.76 9.05 3.76 15.3 10.46 6.24 6.69 9.49 16 3.26 9.31 3.26 20.4v82.62h-14.28q-4.47 0-6.89-1.34t-3.82-5.42l-2.81-9.43q-4.97 4.46-9.69 7.84t-9.82 5.67q-5.1 2.3-10.9 3.51-5.8 1.21-12.81 1.21-8.29 0-15.3-2.23-7.01-2.23-12.11-6.69-5.1-4.47-7.91-11.1-2.8-6.63-2.8-15.43 0-4.97 1.65-9.88 1.66-4.91 5.42-9.37 3.76-4.46 9.76-8.41 5.99-3.96 14.72-6.89 8.74-2.93 20.34-4.78t26.52-2.23v-7.65q0-13.13-5.61-19.44-5.61-6.32-16.19-6.32-7.65 0-12.69 1.79-5.04 1.78-8.86 4.02-3.83 2.23-6.95 4.01-3.12 1.79-6.95 1.79-3.31 0-5.61-1.72-2.29-1.73-3.7-4.02Zm208.98 63.75v-58.65q-5.36-6.5-11.67-9.18-6.31-2.68-13.58-2.68-7.14 0-12.88 2.68-5.73 2.68-9.81 8.1-4.08 5.41-6.25 13.77-2.17 8.35-2.17 19.69 0 11.48 1.85 19.45 1.85 7.97 5.29 13 3.44 5.04 8.42 7.27 4.97 2.23 11.09 2.23 9.82 0 16.7-4.08 6.89-4.08 13.01-11.6Zm0-150.71h31.49v189.47h-19.25q-6.25 0-7.91-5.74l-2.68-12.62q-7.9 9.05-18.17 14.66-10.26 5.61-23.9 5.61-10.71 0-19.64-4.46-8.92-4.46-15.36-12.94-6.44-8.48-9.95-20.98-3.5-12.49-3.5-28.56 0-14.53 3.95-27.03 3.95-12.49 11.35-21.67 7.39-9.18 17.72-14.34 10.33-5.17 23.21-5.17 10.96 0 18.74 3.44 7.78 3.45 13.9 9.31v-68.98Zm63.62 58.66h31.62v130.81h-31.62V195.91Zm35.95-38.13q0 4.08-1.65 7.65-1.66 3.57-4.4 6.25t-6.44 4.27q-3.7 1.59-7.91 1.59-4.08 0-7.71-1.59t-6.31-4.27q-2.68-2.68-4.27-6.25-1.6-3.57-1.6-7.65 0-4.21 1.6-7.9 1.59-3.7 4.27-6.38 2.68-2.68 6.31-4.27 3.63-1.59 7.71-1.59 4.21 0 7.91 1.59t6.44 4.27q2.74 2.68 4.4 6.38 1.65 3.69 1.65 7.9Zm55.08 43.86 2.17 10.33q3.95-3.95 8.35-7.33 4.4-3.38 9.31-5.74 4.91-2.36 10.52-3.7 5.61-1.33 12.24-1.33 10.71 0 19 3.63 8.28 3.63 13.83 10.2 5.55 6.57 8.41 15.68 2.87 9.12 2.87 20.08v83.26h-31.49v-83.26q0-11.98-5.48-18.55t-16.7-6.57q-8.16 0-15.3 3.7-7.14 3.7-13.52 10.07v94.61h-31.49V195.91h19.25q6.12 0 8.03 5.73Zm164.35 56.49q5.87 0 10.2-1.6 4.34-1.59 7.2-4.4 2.87-2.8 4.34-6.75 1.47-3.96 1.47-8.68 0-9.68-5.81-15.36-5.8-5.67-17.4-5.67-11.6 0-17.4 5.67-5.8 5.68-5.8 15.36 0 4.6 1.46 8.55 1.47 3.95 4.34 6.82t7.26 4.46q4.4 1.6 10.14 1.6Zm35.57 74.46q0-3.83-2.29-6.25-2.3-2.43-6.25-3.76-3.95-1.34-9.24-1.98-5.29-.64-11.22-.96-5.93-.32-12.24-.57-6.31-.26-12.31-1.02-5.22 2.93-8.48 6.88-3.25 3.96-3.25 9.19 0 3.44 1.72 6.43 1.73 3 5.49 5.17 3.76 2.16 9.75 3.38 5.99 1.21 14.66 1.21 8.8 0 15.18-1.34 6.37-1.34 10.51-3.7 4.15-2.36 6.06-5.61 1.91-3.25 1.91-7.07Zm-6.24-132.22h37.61v11.73q0 5.61-6.76 6.88l-11.73 2.17q2.68 6.76 2.68 14.79 0 9.69-3.89 17.53-3.89 7.84-10.77 13.32-6.89 5.49-16.26 8.48-9.37 3-20.21 3-3.82 0-7.39-.38-3.57-.39-7.02-1.02-6.12 3.69-6.12 8.29 0 3.95 3.64 5.8 3.63 1.85 9.62 2.61 6 .77 13.65.96 7.65.19 15.68.82 8.03.64 15.68 2.24 7.65 1.59 13.64 5.03 6 3.44 9.63 9.37 3.63 5.93 3.63 15.24 0 8.67-4.27 16.83-4.27 8.16-12.37 14.54-8.09 6.37-19.89 10.26-11.79 3.89-26.83 3.89-14.79 0-25.76-2.87-10.96-2.87-18.23-7.65t-10.84-11.03q-3.57-6.25-3.57-13.01 0-9.18 5.55-15.36 5.54-6.18 15.23-9.88-5.22-2.68-8.28-7.14-3.06-4.46-3.06-11.73 0-2.93 1.08-6.06 1.08-3.12 3.19-6.18 2.1-3.06 5.29-5.8 3.19-2.74 7.52-4.91-9.94-5.36-15.62-14.28-5.67-8.93-5.67-20.91 0-9.69 3.89-17.53 3.89-7.84 10.83-13.39 6.95-5.55 16.45-8.48 9.5-2.93 20.72-2.93 8.42 0 15.81 1.72 7.4 1.72 13.52 5.04Z"/></svg>