<svg xmlns="http://www.w3.org/2000/svg" width="200" height="300" viewBox="0 0 200 300"><rect width="100%" height="100%" fill="#DDDDDD"/><path fill="#999999" d="M47.98 131.69 79.3 148v3.95l-31.32 16.36v-6.96q0-.79.39-1.46.4-.67 1.31-1.1l14.34-7.39q1.85-.91 4.06-1.42-2.21-.52-4.06-1.43l-14.34-7.34q-.91-.48-1.31-1.13-.39-.65-.39-1.44v-6.95Zm41.79 25.12v-8.14h20.46v8.14H89.77Zm60.55-15.6-14.34 7.34q-1.85.91-4.06 1.43 2.21.51 4.06 1.42l14.34 7.39q.91.43 1.31 1.1.39.67.39 1.46v6.96l-31.32-16.36V148l31.32-16.31v6.95q0 .79-.39 1.44-.4.65-1.31 1.13Z"/></svg>