<svg xmlns="http://www.w3.org/2000/svg" width="270" height="400" viewBox="0 0 270 400"><path fill="#999999" d="M89.19 181.41H66.08v14.43H84.3v7.46H66.08v14.72h23.11v7.74H56.36V173.7h32.83v7.71Zm15.01 9.65.54 4.17q1.73-3.31 4.11-5.2 2.37-1.89 5.61-1.89 2.56 0 4.11 1.12l-.58 6.66q-.18.64-.52.91t-.92.27q-.54 0-1.6-.18t-2.07-.18q-1.48 0-2.63.44-1.15.43-2.07 1.24-.92.81-1.62 1.96-.7 1.15-1.31 2.63v22.75h-8.89v-36.94h5.22q1.36 0 1.9.49.54.49.72 1.75Zm26.86 0 .54 4.17q1.73-3.31 4.1-5.2 2.38-1.89 5.62-1.89 2.56 0 4.1 1.12l-.57 6.66q-.18.64-.52.91-.35.27-.92.27-.54 0-1.6-.18-1.07-.18-2.07-.18-1.48 0-2.63.44-1.15.43-2.07 1.24-.92.81-1.62 1.96-.7 1.15-1.32 2.63v22.75h-8.89v-36.94h5.22q1.37 0 1.91.49.54.49.72 1.75Zm35.35-2.81q4.11 0 7.47 1.33 3.37 1.33 5.76 3.78 2.4 2.45 3.69 5.98 1.3 3.52 1.3 7.88 0 4.39-1.3 7.92-1.29 3.53-3.69 6.01-2.39 2.49-5.76 3.82-3.36 1.33-7.47 1.33-4.14 0-7.52-1.33-3.39-1.33-5.78-3.82-2.39-2.48-3.71-6.01-1.31-3.53-1.31-7.92 0-4.36 1.31-7.88 1.32-3.53 3.71-5.98 2.39-2.45 5.78-3.78 3.38-1.33 7.52-1.33Zm0 31.21q4.61 0 6.82-3.1 2.22-3.09 2.22-9.07 0-5.97-2.22-9.11-2.21-3.13-6.82-3.13-4.68 0-6.93 3.15t-2.25 9.09q0 5.94 2.25 9.06 2.25 3.11 6.93 3.11Zm32.87-28.4.54 4.17q1.73-3.31 4.1-5.2 2.38-1.89 5.62-1.89 2.56 0 4.1 1.12l-.57 6.66q-.18.64-.52.91-.35.27-.92.27-.54 0-1.6-.18-1.07-.18-2.07-.18-1.48 0-2.63.44-1.15.43-2.07 1.24-.92.81-1.62 1.96-.7 1.15-1.32 2.63v22.75h-8.89v-36.94h5.22q1.37 0 1.91.49.54.49.72 1.75Z"/></svg>