<svg xmlns="http://www.w3.org/2000/svg" width="270" height="400" viewBox="0 0 270 400"><path fill="#999999" d="M61.01 208H74.6v5.22H54.69v-33.98h6.32V208Zm27.85-19.27q2.68 0 4.88.87 2.19.87 3.76 2.47 1.56 1.6 2.4 3.9.85 2.3.85 5.15 0 2.86-.85 5.17-.84 2.3-2.4 3.92-1.57 1.62-3.76 2.49-2.2.87-4.88.87-2.7 0-4.91-.87t-3.77-2.49q-1.57-1.62-2.42-3.92-.86-2.31-.86-5.17 0-2.85.86-5.15.85-2.3 2.42-3.9 1.56-1.6 3.77-2.47 2.21-.87 4.91-.87Zm0 20.38q3.01 0 4.45-2.02 1.45-2.02 1.45-5.93 0-3.9-1.45-5.94-1.44-2.05-4.45-2.05-3.06 0-4.52 2.06-1.47 2.06-1.47 5.93 0 3.88 1.47 5.91 1.46 2.04 4.52 2.04Zm29.07-2.12v-4.06q-2.52.11-4.23.43-1.72.32-2.75.81-1.03.5-1.48 1.15-.45.66-.45 1.44 0 1.53.91 2.18.9.66 2.36.66 1.79 0 3.09-.65 1.3-.64 2.55-1.96Zm-12.27-12.66-1.03-1.86q4.16-3.81 10.01-3.81 2.11 0 3.78.7 1.67.69 2.82 1.92 1.15 1.24 1.75 2.95.6 1.72.6 3.76v15.23h-2.63q-.82 0-1.27-.25-.44-.24-.7-1l-.52-1.73q-.92.82-1.79 1.44t-1.81 1.05q-.94.42-2 .64-1.07.23-2.37.23-1.52 0-2.82-.42-1.29-.41-2.23-1.23-.94-.82-1.46-2.04-.51-1.23-.51-2.85 0-.91.3-1.82.31-.9 1-1.73.69-.82 1.8-1.55 1.1-.72 2.71-1.27 1.61-.54 3.75-.88 2.14-.34 4.89-.41v-1.41q0-2.42-1.03-3.58-1.04-1.17-2.99-1.17-1.41 0-2.34.33-.93.33-1.63.74-.71.42-1.28.74-.58.33-1.28.33-.61 0-1.04-.31-.42-.32-.68-.74Zm38.52 11.75v-10.81q-.99-1.2-2.15-1.7-1.16-.49-2.5-.49-1.32 0-2.38.49-1.06.5-1.81 1.5-.75.99-1.15 2.53-.4 1.54-.4 3.64 0 2.11.34 3.58.34 1.47.98 2.4.63.92 1.55 1.34.92.41 2.04.41 1.81 0 3.08-.76 1.27-.75 2.4-2.13Zm0-27.78h5.8v34.92h-3.55q-1.15 0-1.45-1.06l-.5-2.32q-1.45 1.66-3.34 2.7-1.9 1.03-4.41 1.03-1.97 0-3.62-.82-1.64-.82-2.83-2.39-1.19-1.56-1.83-3.86-.65-2.3-.65-5.26 0-2.68.73-4.99.73-2.3 2.09-3.99 1.36-1.69 3.27-2.65 1.9-.95 4.27-.95 2.02 0 3.46.64 1.43.63 2.56 1.71V178.3Zm11.73 10.81h5.82v24.11h-5.82v-24.11Zm6.62-7.03q0 .75-.3 1.41-.31.66-.81 1.15-.51.5-1.19.79-.68.29-1.46.29-.75 0-1.42-.29-.67-.29-1.16-.79-.5-.49-.79-1.15-.29-.66-.29-1.41 0-.77.29-1.45.29-.69.79-1.18.49-.49 1.16-.79.67-.29 1.42-.29.78 0 1.46.29.68.3 1.19.79.5.49.81 1.18.3.68.3 1.45Zm10.15 8.09.4 1.9q.73-.73 1.54-1.35.81-.62 1.72-1.06.9-.43 1.94-.68 1.03-.25 2.25-.25 1.98 0 3.5.67 1.53.67 2.55 1.88 1.03 1.21 1.56 2.89.52 1.68.52 3.7v15.35h-5.8v-15.35q0-2.2-1.01-3.41-1.01-1.22-3.08-1.22-1.5 0-2.82.69-1.32.68-2.49 1.85v17.44h-5.8v-24.11h3.54q1.13 0 1.48 1.06Zm30.3 10.41q1.08 0 1.88-.3.79-.29 1.32-.81.53-.51.8-1.24t.27-1.6q0-1.79-1.07-2.83-1.07-1.05-3.2-1.05-2.14 0-3.21 1.05-1.07 1.04-1.07 2.83 0 .85.27 1.57.27.73.8 1.26t1.34.82q.81.3 1.87.3Zm6.55 13.72q0-.7-.42-1.15-.42-.45-1.15-.69-.73-.25-1.71-.37-.97-.12-2.06-.17-1.1-.06-2.26-.11-1.16-.05-2.27-.19-.96.54-1.56 1.27-.6.73-.6 1.69 0 .64.32 1.19.31.55 1.01.95.69.4 1.8.62 1.1.23 2.7.23 1.62 0 2.79-.25 1.18-.25 1.94-.68.77-.44 1.12-1.03.35-.6.35-1.31Zm-1.15-24.37h6.93v2.16q0 1.04-1.24 1.27l-2.16.4q.49 1.25.49 2.73 0 1.78-.72 3.23-.71 1.44-1.98 2.46-1.27 1.01-3 1.56t-3.72.55q-.71 0-1.37-.07-.66-.07-1.29-.19-1.13.68-1.13 1.53 0 .73.67 1.07.67.34 1.78.48 1.1.14 2.51.18 1.41.03 2.89.15 1.48.12 2.89.41 1.41.29 2.52.93 1.1.63 1.77 1.73.67 1.09.67 2.8 0 1.6-.79 3.11-.78 1.5-2.28 2.68-1.49 1.17-3.66 1.89-2.18.71-4.95.71-2.73 0-4.75-.53-2.02-.52-3.36-1.41-1.34-.88-1.99-2.03-.66-1.15-.66-2.39 0-1.7 1.02-2.84t2.81-1.82q-.97-.49-1.53-1.31-.56-.83-.56-2.17 0-.54.2-1.11.2-.58.58-1.14.39-.57.98-1.07.59-.51 1.39-.91-1.84-.98-2.88-2.63-1.05-1.64-1.05-3.85 0-1.79.72-3.23.71-1.45 2-2.47 1.28-1.02 3.03-1.56 1.75-.54 3.82-.54 1.55 0 2.91.31 1.36.32 2.49.93Z"/></svg>