<svg xmlns="http://www.w3.org/2000/svg" width="200" height="300" viewBox="0 0 200 300"><rect width="100%" height="100%" fill="#DDDDDD"/><path fill="#999999" d="M44.9 155.955h10.12v3.89H40.19v-25.31h4.71v21.42Zm20.74-14.35q1.99 0 3.63.65t2.8 1.84q1.16 1.19 1.79 2.9.63 1.72.63 3.84 0 2.13-.63 3.85-.63 1.71-1.79 2.92-1.16 1.21-2.8 1.85-1.64.65-3.63.65-2.01 0-3.66-.65-1.64-.64-2.81-1.85-1.16-1.21-1.8-2.92-.64-1.72-.64-3.85 0-2.12.64-3.84.64-1.71 1.8-2.9 1.17-1.19 2.81-1.84 1.65-.65 3.66-.65Zm0 15.18q2.24 0 3.32-1.51 1.07-1.5 1.07-4.41 0-2.9-1.07-4.43-1.08-1.52-3.32-1.52-2.28 0-3.37 1.53-1.09 1.53-1.09 4.42 0 2.89 1.09 4.4 1.09 1.52 3.37 1.52Zm21.65-1.58v-3.03q-1.88.09-3.15.33-1.28.23-2.05.6-.77.37-1.1.86-.34.49-.34 1.07 0 1.13.68 1.62.67.49 1.76.49 1.33 0 2.3-.48.97-.48 1.9-1.46Zm-9.14-9.43-.77-1.38q3.1-2.84 7.46-2.84 1.57 0 2.81.52 1.25.51 2.1 1.43.86.92 1.31 2.2.44 1.28.44 2.8v11.34h-1.96q-.61 0-.94-.18-.33-.19-.53-.75l-.38-1.29q-.68.61-1.33 1.07-.65.47-1.35.78-.7.32-1.49.48-.8.17-1.76.17-1.14 0-2.1-.31-.97-.3-1.67-.92-.7-.61-1.08-1.52-.39-.91-.39-2.12 0-.68.23-1.35.23-.68.75-1.29.51-.61 1.33-1.15.83-.55 2.03-.95 1.19-.4 2.79-.65 1.59-.26 3.64-.31v-1.05q0-1.8-.77-2.67-.77-.87-2.23-.87-1.05 0-1.74.25-.69.24-1.21.55-.53.31-.96.55-.43.25-.95.25-.46 0-.77-.24-.32-.24-.51-.55Zm28.68 8.75v-8.05q-.73-.89-1.6-1.26-.86-.37-1.86-.37-.98 0-1.77.37t-1.35 1.11q-.56.74-.85 1.89-.3 1.15-.3 2.7 0 1.58.25 2.67.26 1.1.73 1.79t1.15 1q.69.3 1.53.3 1.34 0 2.29-.56.94-.56 1.78-1.59Zm0-20.69h4.33v26.01h-2.65q-.85 0-1.08-.79l-.37-1.73q-1.08 1.24-2.49 2.01-1.41.77-3.28.77-1.47 0-2.7-.61-1.22-.61-2.11-1.78-.88-1.16-1.36-2.88-.48-1.71-.48-3.92 0-1.99.54-3.71.54-1.71 1.56-2.97 1.01-1.26 2.43-1.97 1.42-.71 3.18-.71 1.51 0 2.58.47 1.06.48 1.9 1.28v-9.47Zm8.74 8.05h4.34v17.96h-4.34v-17.96Zm4.93-5.23q0 .56-.23 1.05-.22.49-.6.86t-.88.59q-.51.21-1.09.21-.56 0-1.06-.21-.5-.22-.86-.59-.37-.37-.59-.86-.22-.49-.22-1.05 0-.58.22-1.08.22-.51.59-.88.36-.37.86-.58.5-.22 1.06-.22.58 0 1.09.22.5.21.88.58t.6.88q.23.5.23 1.08Zm7.56 6.02.3 1.42q.54-.54 1.15-1.01.6-.46 1.27-.78.68-.33 1.45-.51.77-.19 1.68-.19 1.47 0 2.6.5 1.14.5 1.9 1.4.76.9 1.16 2.16.39 1.25.39 2.75v11.43h-4.32v-11.43q0-1.64-.75-2.54-.76-.91-2.3-.91-1.12 0-2.1.51t-1.85 1.38v12.99h-4.32v-17.96h2.64q.84 0 1.1.79Zm22.56 7.75q.8 0 1.4-.21.6-.22.99-.61.39-.38.59-.93.2-.54.2-1.19 0-1.33-.79-2.1-.8-.78-2.39-.78t-2.39.78q-.79.77-.79 2.1 0 .63.2 1.18.2.54.59.93.39.4 1 .62.6.21 1.39.21Zm4.88 10.23q0-.53-.31-.86-.32-.34-.86-.52t-1.27-.27q-.72-.09-1.54-.13-.81-.05-1.68-.08-.86-.04-1.69-.14-.71.4-1.16.94-.45.55-.45 1.27 0 .47.24.88.24.41.75.71.52.3 1.34.46.82.17 2.01.17 1.21 0 2.09-.19.87-.18 1.44-.5.57-.33.83-.77.26-.45.26-.97Zm-.85-18.15h5.16v1.61q0 .77-.93.94l-1.61.3q.37.93.37 2.03 0 1.33-.54 2.41-.53 1.07-1.48 1.82-.94.76-2.23 1.17-1.28.41-2.77.41-.53 0-1.01-.05-.49-.06-.97-.14-.84.5-.84 1.13 0 .55.5.8t1.32.36q.82.1 1.88.13 1.05.03 2.15.11 1.1.09 2.15.31 1.05.22 1.87.69.83.47 1.32 1.29.5.81.5 2.09 0 1.19-.58 2.31-.59 1.12-1.7 2-1.11.87-2.73 1.4-1.62.54-3.68.54-2.03 0-3.54-.4-1.5-.39-2.5-1.05-1-.65-1.49-1.51t-.49-1.78q0-1.26.76-2.11.76-.85 2.09-1.36-.72-.37-1.14-.98-.41-.61-.41-1.61 0-.4.14-.83.15-.43.44-.85.29-.42.73-.8.44-.37 1.03-.67-1.37-.74-2.14-1.96-.78-1.23-.78-2.87 0-1.33.53-2.41.53-1.07 1.49-1.83.95-.77 2.26-1.17 1.3-.4 2.84-.4 1.15 0 2.17.24 1.01.23 1.86.69Z"/></svg>